Coordinates
version=1
nRows=19
nColumns=34
inDegrees=yes

Units are S.I. units (second, meters, Newtons, ...)
Angles are in degrees.

endheader
time	pelvis_tilt	pelvis_list	pelvis_rotation	pelvis_tx	pelvis_ty	pelvis_tz	hip_flexion_r	hip_adduction_r	hip_rotation_r	knee_angle_r	ankle_angle_r	subtalar_angle_r	mtp_angle_r	hip_flexion_l	hip_adduction_l	hip_rotation_l	knee_angle_l	socket_flexion	socket_adduction	socket_rotation	socket_tx	socket_ty	socket_tz	pros_ankle_rx	pros_ankle_ry	pros_ankle_rz	pros_ankle_tx	pros_ankle_ty	pros_ankle_tz	foot_flex	lumbar_extension	lumbar_bending	lumbar_rotation
      0.59583333	      0.03373101	     -4.26983040	      8.71438672	      0.02378716	      1.02175156	      0.36603822	     19.03549146	      2.67007042	    -11.29437302	      4.01230996	     13.12252257	      6.63538259	      2.49897159	    -10.81097392	     -6.33679124	      6.13990369	    -18.63739246	      0.00000000	      0.00000000	      0.00000000	      0.00000000	      0.00438310	      0.00000000	      0.00000000	      0.00000000	      0.00000000	      0.00000000	      0.00000000	      0.00000000	     14.09460428	    -20.12366777	     -1.03182958	     -6.97321025
      0.60000000	     -0.20621065	     -4.34038693	      9.00645790	      0.02983527	      1.02024462	      0.36579981	     19.40435624	      2.62449684	    -11.11487544	      3.78035290	     12.39117003	      6.17669396	      3.75650754	    -10.62731409	     -6.48357613	      6.36413765	    -19.03793625	      0.00000000	      0.00000000	      0.00000000	      0.00000000	      0.00456822	      0.00000000	      0.00000000	      0.00000000	      0.00000000	      0.00000000	      0.00000000	      0.00000000	     14.17927654	    -19.82969145	     -0.81699327	     -7.40786933
      0.60416667	     -0.16780323	     -4.38840636	      9.16595355	      0.03580066	      1.01919802	      0.36580413	     19.56903283	      2.63066726	    -10.95418833	      3.32075314	     11.97527708	      6.18622214	      3.87056731	    -10.77941839	     -6.63040852	      6.43766706	    -19.41533225	      0.00000000	      0.00000000	      0.00000000	      0.00000000	      0.00483066	      0.00000000	      0.00000000	      0.00000000	      0.00000000	      0.00000000	      0.00000000	      0.00000000	     14.24215964	    -19.91819852	     -0.60242214	     -7.37708353
      0.60833333	     -0.12727947	     -4.45244598	      9.32716939	      0.04184183	      1.01820619	      0.36579806	     19.74153350	      2.65555235	    -10.78339458	      2.78919316	     11.51879761	      6.17809624	      3.98051541	    -10.92455380	     -6.78849294	      6.51933546	    -19.80757174	      0.00000000	      0.00000000	      0.00000000	      0.00000000	      0.00517347	      0.00000000	      0.00000000	      0.00000000	      0.00000000	      0.00000000	      0.00000000	      0.00000000	     14.31220157	    -19.95596221	     -0.37641551	     -7.38161358
      0.61250000	     -0.11668945	     -4.56453752	      9.47665501	      0.04785912	      1.01719264	      0.36583830	     19.99327172	      2.72197052	    -10.69051335	      2.15043439	     10.93259908	      6.10004203	      4.18975483	    -10.98901030	     -6.99419494	      6.55266645	    -20.27072582	      0.00000000	      0.00000000	      0.00000000	      0.00000000	      0.00543663	      0.00000000	      0.00000000	      0.00000000	      0.00000000	      0.00000000	      0.00000000	      0.00000000	     14.33092140	    -20.01564210	     -0.13149725	     -7.39833970
      0.61666667	     -0.03133047	     -4.65194944	      9.63757281	      0.05399361	      1.01641887	      0.36591192	     20.06688338	      2.79804480	    -10.46289142	      1.62096023	     10.57193320	      6.11266810	      4.26335502	    -11.12293845	     -7.18506981	      6.64876093	    -20.75832816	      0.00000000	      0.00000000	      0.00000000	      0.00000000	      0.00586177	      0.00000000	      0.00000000	      0.00000000	      0.00000000	      0.00000000	      0.00000000	      0.00000000	     14.30640870	    -19.96235536	      0.01298607	     -7.39879757
      0.62083333	     -0.18250273	     -4.80987193	      9.77431012	      0.06005249	      1.01514497	      0.36588249	     20.63233367	      2.83528183	    -10.58439786	      0.71760351	      9.17799517	      5.60680208	      9.13400773	    -10.94153490	     -7.39956898	      6.65385434	    -21.34444934	      0.00000000	      0.00000000	      0.00000000	      0.00000000	      0.00605427	      0.00000000	      0.00000000	      0.00000000	      0.00000000	      0.00000000	      0.00000000	      0.00000000	     14.36144752	    -19.88060797	      0.38801700	     -7.34386851
      0.62500000	     -0.10778477	     -4.95630330	      9.84896899	      0.06610960	      1.01438672	      0.36603942	     20.85733584	      2.96643635	    -10.43898435	     -0.09461445	      8.52433618	      5.62273729	      9.14100829	    -11.00992749	     -7.62988853	      6.61380091	    -21.93160990	      0.00000000	      0.00000000	      0.00000000	      0.00000000	      0.00639006	      0.00000000	      0.00000000	      0.00000000	      0.00000000	      0.00000000	      0.00000000	      0.00000000	     14.30967327	    -19.98547151	      0.68592545	     -7.34955634
      0.62916667	     -0.02682568	     -5.11764652	      9.91906211	      0.07216227	      1.01367370	      0.36621763	     21.12051195	      3.10560592	    -10.36211055	     -1.02540563	      7.87664345	      5.54956509	      9.18319133	    -11.04744024	     -7.87371476	      6.56004549	    -22.58217127	      0.00000000	      0.00000000	      0.00000000	      0.00000000	      0.00676046	      0.00000000	      0.00000000	      0.00000000	      0.00000000	      0.00000000	      0.00000000	      0.00000000	     14.25753655	    -20.08972376	      1.00834126	     -7.30017181
      0.63333333	      0.05549982	     -5.29642262	      9.97318414	      0.07819425	      1.01302146	      0.36641958	     21.40294416	      3.26409904	    -10.30449978	     -2.01336709	      7.24834781	      5.44655026	      9.25440156	    -11.04629218	     -8.12966656	      6.48480884	    -23.29381138	      0.00000000	      0.00000000	      0.00000000	      0.00000000	      0.00711764	      0.00000000	      0.00000000	      0.00000000	      0.00000000	      0.00000000	      0.00000000	      0.00000000	     14.16887729	    -20.18872673	      1.33642409	     -7.21639482
      0.63750000	      0.11311218	     -5.50259127	      9.99731514	      0.08426068	      1.01236124	      0.36669675	     21.74884223	      3.44580770	    -10.29246487	     -3.09217628	      6.61830781	      5.30537835	      9.37205109	    -10.99093163	     -8.40468747	      6.37025177	    -24.06000571	      0.00000000	      0.00000000	      0.00000000	      0.00000000	      0.00746554	      0.00000000	      0.00000000	      0.00000000	      0.00000000	      0.00000000	      0.00000000	      0.00000000	     14.04181807	    -20.28813611	      1.66895811	     -7.08816412
      0.64166667	      0.18461247	     -5.70562150	     10.00444785	      0.09031804	      1.01181059	      0.36699666	     22.07584748	      3.63137139	    -10.26578193	     -4.18884140	      6.03530735	      5.17532803	      9.50345775	    -10.90916200	     -8.67095721	      6.24101454	    -24.89600057	      0.00000000	      0.00000000	      0.00000000	      0.00000000	      0.00788210	      0.00000000	      0.00000000	      0.00000000	      0.00000000	      0.00000000	      0.00000000	      0.00000000	     13.88943025	    -20.37324071	      2.01783356	     -6.94195711
      0.64583333	      0.20958843	     -5.94865994	      9.96331753	      0.09644327	      1.01119615	      0.36737560	     22.49795663	      3.85001072	    -10.31650544	     -5.37595799	      5.49964540	      5.00969303	      9.71740965	    -10.76207176	     -8.95993333	      6.08385780	    -25.77577487	      0.00000000	      0.00000000	      0.00000000	      0.00000000	      0.00822079	      0.00000000	      0.00000000	      0.00000000	      0.00000000	      0.00000000	      0.00000000	      0.00000000	     13.68803389	    -20.42140420	      2.34433699	     -6.72370302
      0.65000000	      0.19053260	     -6.18952888	      9.91047289	      0.10264013	      1.01059402	      0.36783927	     22.96281390	      4.06221234	    -10.37750914	     -6.60641139	      5.06758597	      4.88160411	     10.06339956	    -10.52974132	     -9.24153062	      5.90644958	    -26.72009414	      0.00000000	      0.00000000	      0.00000000	      0.00000000	      0.00865449	      0.00000000	      0.00000000	      0.00000000	      0.00000000	      0.00000000	      0.00000000	      0.00000000	     13.43855609	    -20.35508322	      2.64585622	     -6.42416457
      0.65416667	      0.27127791	     -6.40237044	      9.86414689	      0.10874133	      1.01027013	      0.36829275	     23.23811416	      4.27538658	    -10.34524338	     -7.69145418	      4.62785732	      4.82121637	     10.23091256	    -10.34143328	     -9.50788110	      5.71607085	    -27.75680255	      0.00000000	      0.00000000	      0.00000000	      0.00000000	      0.00925131	      0.00000000	      0.00000000	      0.00000000	      0.00000000	      0.00000000	      0.00000000	      0.00000000	     13.17231473	    -20.46783051	      3.00441647	     -6.26464893
      0.65833333	      0.37355752	     -6.63292562	      9.80677885	      0.11488824	      1.01002065	      0.36879357	     23.48934319	      4.51109134	    -10.38525448	     -8.77969421	      4.24799944	      4.72679889	     10.36878832	    -10.14774450	     -9.79744125	      5.49741435	    -28.83579405	      0.00000000	      0.00000000	      0.00000000	      0.00000000	      0.00982943	      0.00000000	      0.00000000	      0.00000000	      0.00000000	      0.00000000	      0.00000000	      0.00000000	     12.83517935	    -20.58130190	      3.34522382	     -6.08067471
      0.66250000	      0.44979294	     -6.89687603	      9.71780190	      0.12108490	      1.00974472	      0.36931212	     23.78739071	      4.77119564	    -10.47604312	     -9.92837530	      3.92076559	      4.62464190	     10.52687198	     -9.90789142	    -10.10744898	      5.27374011	    -29.95647587	      0.00000000	      0.00000000	      0.00000000	      0.00000000	      0.01035683	      0.00000000	      0.00000000	      0.00000000	      0.00000000	      0.00000000	      0.00000000	      0.00000000	     12.47033632	    -20.69745306	      3.70622569	     -5.83067229
      0.66666667	      0.48733332	     -7.17789319	      9.61088748	      0.12736403	      1.00943695	      0.36986605	     24.11302983	      5.03896161	    -10.59606832	    -11.08259632	      3.68731674	      4.55791448	     10.73298267	     -9.59920214	    -10.42773615	      5.05109245	    -31.12934205	      0.00000000	      0.00000000	      0.00000000	      0.00000000	      0.01092264	      0.00000000	      0.00000000	      0.00000000	      0.00000000	      0.00000000	      0.00000000	      0.00000000	     12.06345926	    -20.73376257	      4.04906401	     -5.50186567
      0.67083333	      0.19847903	     -7.42039033	      9.41997056	      0.13385129	      1.00868573	      0.37057138	     24.83279047	      5.19690715	    -10.79214192	    -12.38469000	      3.68628315	      4.93235055	     11.56918171	     -8.89787406	    -10.64290298	      4.79716841	    -32.41536755	      0.00000000	      0.00000000	      0.00000000	      0.00000000	      0.01158672	      0.00000000	      0.00000000	      0.00000000	      0.00000000	      0.00000000	      0.00000000	      0.00000000	     11.59346996	    -20.19637528	      4.23455551	     -4.92819531
